<mxfile host="app.diagrams.net" agent="Mozilla/5.0 (Windows NT 10.0; Win64; x64) AppleWebKit/537.36 (KHTML, like Gecko) Chrome/140.0.0.0 Safari/537.36" version="28.2.5">
  <diagram name="Page-1" id="lNq2Lm9d4E5_goBLbEFh">
    <mxGraphModel dx="1225" dy="706" grid="1" gridSize="10" guides="1" tooltips="1" connect="1" arrows="1" fold="1" page="1" pageScale="1" pageWidth="825" pageHeight="2080" background="none" math="0" shadow="0">
      <root>
        <mxCell id="0" />
        <mxCell id="1" parent="0" />
        <mxCell id="v-1SciKaPuptmnlQks71-1" value="" style="rounded=0;whiteSpace=wrap;html=1;fillColor=#eeeeee;strokeColor=#36393d;" vertex="1" parent="1">
          <mxGeometry width="825" height="120" as="geometry" />
        </mxCell>
        <mxCell id="v-1SciKaPuptmnlQks71-2" value="&lt;font face=&quot;Garamond&quot; style=&quot;font-size: 20px;&quot;&gt;&lt;b style=&quot;&quot;&gt;logo&lt;/b&gt;&lt;/font&gt;" style="ellipse;whiteSpace=wrap;html=1;aspect=fixed;fillColor=#f8cecc;strokeColor=#b85450;" vertex="1" parent="1">
          <mxGeometry x="30" y="20" width="80" height="80" as="geometry" />
        </mxCell>
        <mxCell id="v-1SciKaPuptmnlQks71-4" value="&lt;font face=&quot;Garamond&quot; style=&quot;font-size: 35px;&quot;&gt;Fear File ðŸ“‚&amp;nbsp;&lt;/font&gt;" style="text;strokeColor=none;fillColor=none;html=1;fontSize=26;fontStyle=1;verticalAlign=middle;align=center;" vertex="1" parent="1">
          <mxGeometry x="286.25" y="20" width="252.5" height="80" as="geometry" />
        </mxCell>
        <mxCell id="v-1SciKaPuptmnlQks71-6" value="" style="rounded=0;whiteSpace=wrap;html=1;fillColor=#f8cecc;strokeColor=#b85450;" vertex="1" parent="1">
          <mxGeometry y="120" width="825" height="70" as="geometry" />
        </mxCell>
        <mxCell id="v-1SciKaPuptmnlQks71-8" value="&lt;b style=&quot;font-family: Garamond;&quot;&gt;&lt;font style=&quot;font-size: 25px;&quot;&gt;â˜¾&amp;nbsp; / â˜€ï¸Ž&lt;/font&gt;&lt;/b&gt;" style="rounded=1;whiteSpace=wrap;html=1;fillColor=#f8cecc;strokeColor=#b85450;" vertex="1" parent="1">
          <mxGeometry x="670" y="30" width="120" height="60" as="geometry" />
        </mxCell>
        <mxCell id="v-1SciKaPuptmnlQks71-9" value="&lt;font face=&quot;Garamond&quot; style=&quot;font-size: 30px;&quot;&gt;&lt;u&gt;Home&amp;nbsp;&lt;/u&gt; &amp;nbsp;|&amp;nbsp; &amp;nbsp;Review&amp;nbsp; &amp;nbsp;|&amp;nbsp; &amp;nbsp;Discover&amp;nbsp; &amp;nbsp;|&amp;nbsp; &amp;nbsp;Join&amp;nbsp; &amp;nbsp;|&amp;nbsp; &amp;nbsp;About Us&amp;nbsp;&lt;/font&gt;" style="text;html=1;align=center;verticalAlign=middle;whiteSpace=wrap;rounded=0;fontStyle=0" vertex="1" parent="1">
          <mxGeometry x="58" y="140" width="711.25" height="30" as="geometry" />
        </mxCell>
        <mxCell id="v-1SciKaPuptmnlQks71-11" value="&lt;font style=&quot;font-size: 35px;&quot; face=&quot;Garamond&quot;&gt;&lt;b&gt;Hero Image&lt;/b&gt;&lt;/font&gt;" style="rounded=0;whiteSpace=wrap;html=1;fillColor=#f9f7ed;strokeColor=#36393d;" vertex="1" parent="1">
          <mxGeometry y="190" width="825" height="410" as="geometry" />
        </mxCell>
        <mxCell id="v-1SciKaPuptmnlQks71-12" value="&lt;span style=&quot;font-family: Garamond;&quot;&gt;&lt;font style=&quot;font-size: 20px;&quot;&gt;Join Us!&lt;/font&gt;&lt;/span&gt;" style="rounded=1;whiteSpace=wrap;html=1;fillColor=#f8cecc;strokeColor=#b85450;" vertex="1" parent="1">
          <mxGeometry x="649.25" y="530" width="120" height="40" as="geometry" />
        </mxCell>
        <mxCell id="v-1SciKaPuptmnlQks71-14" value="&lt;font style=&quot;font-size: 20px;&quot; face=&quot;Garamond&quot;&gt;( club events )&lt;/font&gt;" style="rounded=1;whiteSpace=wrap;html=1;fillColor=#eeeeee;strokeColor=#36393d;" vertex="1" parent="1">
          <mxGeometry x="40" y="840" width="520" height="200" as="geometry" />
        </mxCell>
        <mxCell id="v-1SciKaPuptmnlQks71-15" value="&lt;font style=&quot;font-size: 20px;&quot; face=&quot;Garamond&quot;&gt;( weather forecast )&lt;/font&gt;" style="rounded=1;whiteSpace=wrap;html=1;fillColor=#eeeeee;strokeColor=#36393d;" vertex="1" parent="1">
          <mxGeometry x="550" y="1080" width="240" height="200" as="geometry" />
        </mxCell>
        <mxCell id="v-1SciKaPuptmnlQks71-18" value="&lt;font style=&quot;font-size: 20px;&quot; face=&quot;Garamond&quot;&gt;( current weather )&lt;/font&gt;" style="rounded=1;whiteSpace=wrap;html=1;fillColor=#eeeeee;strokeColor=#36393d;" vertex="1" parent="1">
          <mxGeometry x="270" y="1080" width="240" height="200" as="geometry" />
        </mxCell>
        <mxCell id="v-1SciKaPuptmnlQks71-22" value="&lt;font face=&quot;Garamond&quot; style=&quot;font-size: 20px;&quot;&gt;( css animation )&lt;/font&gt;" style="ellipse;whiteSpace=wrap;html=1;fillColor=#f8cecc;strokeColor=#b85450;" vertex="1" parent="1">
          <mxGeometry x="600" y="880" width="190" height="120" as="geometry" />
        </mxCell>
        <mxCell id="v-1SciKaPuptmnlQks71-25" value="&lt;font face=&quot;Garamond&quot; style=&quot;font-size: 20px;&quot;&gt;( css animation )&lt;/font&gt;" style="ellipse;whiteSpace=wrap;html=1;fillColor=#f8cecc;strokeColor=#b85450;" vertex="1" parent="1">
          <mxGeometry x="40" y="1120" width="190" height="120" as="geometry" />
        </mxCell>
        <mxCell id="v-1SciKaPuptmnlQks71-26" value="" style="rounded=0;whiteSpace=wrap;html=1;fillColor=#eeeeee;strokeColor=#36393d;" vertex="1" parent="1">
          <mxGeometry x="-3.552713678800501e-15" y="1960" width="825" height="120" as="geometry" />
        </mxCell>
        <mxCell id="v-1SciKaPuptmnlQks71-28" value="&lt;font style=&quot;font-size: 15px;&quot; face=&quot;Garamond&quot;&gt;&lt;b&gt;( show tier level games at random )&lt;/b&gt;&lt;/font&gt;" style="rounded=1;whiteSpace=wrap;html=1;fillColor=#f9f7ed;strokeColor=#36393d;" vertex="1" parent="1">
          <mxGeometry x="400" y="1320" width="307" height="80" as="geometry" />
        </mxCell>
        <mxCell id="v-1SciKaPuptmnlQks71-39" value="&lt;h1 style=&quot;margin-top: 0px;&quot;&gt;&lt;font style=&quot;font-size: 35px;&quot; face=&quot;Garamond&quot;&gt;Welcome!&lt;/font&gt;&lt;/h1&gt;&lt;p&gt;&lt;font face=&quot;Garamond&quot; style=&quot;font-size: 25px;&quot;&gt;Lorem ipsum dolor sit amet, consectetur adipisicing elit, sed do eiusmod tempor incididunt ut labore et dolore magna aliqua.&lt;/font&gt;&lt;/p&gt;" style="text;html=1;whiteSpace=wrap;overflow=hidden;rounded=0;align=center;textShadow=1;" vertex="1" parent="1">
          <mxGeometry x="96" y="640" width="632" height="160" as="geometry" />
        </mxCell>
        <mxCell id="v-1SciKaPuptmnlQks71-42" value="&lt;h1 style=&quot;margin-top: 0px;&quot;&gt;&lt;font face=&quot;Garamond&quot;&gt;&lt;span style=&quot;font-size: 35px;&quot;&gt;Tier Level Games&lt;/span&gt;&lt;/font&gt;&lt;/h1&gt;&lt;p&gt;&lt;span style=&quot;font-size: 25px; font-family: Garamond; background-color: transparent; color: light-dark(rgb(0, 0, 0), rgb(255, 255, 255));&quot;&gt;Lorem ipsum dolor sit amet, consectetur adipisicing elit, sed do eiusmod tempor incididunt ut labore et dolore magna aliqua.&lt;/span&gt;&lt;/p&gt;" style="text;html=1;whiteSpace=wrap;overflow=hidden;rounded=0;align=right;textShadow=1;" vertex="1" parent="1">
          <mxGeometry x="80" y="1320" width="270" height="280" as="geometry" />
        </mxCell>
        <mxCell id="v-1SciKaPuptmnlQks71-43" value="&lt;font style=&quot;font-size: 15px;&quot; face=&quot;Garamond&quot;&gt;&lt;b&gt;( show tier level games at random )&lt;/b&gt;&lt;/font&gt;" style="rounded=1;whiteSpace=wrap;html=1;fillColor=#f9f7ed;strokeColor=#36393d;" vertex="1" parent="1">
          <mxGeometry x="400" y="1420" width="307" height="80" as="geometry" />
        </mxCell>
        <mxCell id="v-1SciKaPuptmnlQks71-44" value="&lt;font style=&quot;font-size: 15px;&quot; face=&quot;Garamond&quot;&gt;&lt;b&gt;( show tier level games at random )&lt;/b&gt;&lt;/font&gt;" style="rounded=1;whiteSpace=wrap;html=1;fillColor=#f9f7ed;strokeColor=#36393d;" vertex="1" parent="1">
          <mxGeometry x="400" y="1520" width="307" height="80" as="geometry" />
        </mxCell>
        <mxCell id="v-1SciKaPuptmnlQks71-45" value="&lt;h1 style=&quot;margin-top: 0px;&quot;&gt;&lt;font face=&quot;Garamond&quot; style=&quot;font-size: 35px;&quot;&gt;Platform to play&lt;/font&gt;&lt;/h1&gt;&lt;p&gt;&lt;span style=&quot;font-size: 25px; font-family: Garamond; background-color: transparent; color: light-dark(rgb(0, 0, 0), rgb(255, 255, 255));&quot;&gt;Lorem ipsum dolor sit amet, consectetur adipisicing elit, sed do eiusmod tempor incididunt ut labore et dolore magna aliqua.&lt;/span&gt;&lt;/p&gt;" style="text;html=1;whiteSpace=wrap;overflow=hidden;rounded=0;align=left;textShadow=1;" vertex="1" parent="1">
          <mxGeometry x="490" y="1640" width="243" height="280" as="geometry" />
        </mxCell>
        <mxCell id="v-1SciKaPuptmnlQks71-46" value="&lt;font face=&quot;Garamond&quot; style=&quot;font-size: 15px;&quot;&gt;( info about platform/site to play games )&lt;/font&gt;" style="rounded=1;whiteSpace=wrap;html=1;fillColor=#f9f7ed;strokeColor=#36393d;" vertex="1" parent="1">
          <mxGeometry x="131" y="1640" width="307" height="80" as="geometry" />
        </mxCell>
        <mxCell id="v-1SciKaPuptmnlQks71-51" value="&lt;h1 style=&quot;margin-top: 0px;&quot;&gt;&lt;font style=&quot;font-size: 20px;&quot;&gt;Fear File&lt;/font&gt;&lt;/h1&gt;&lt;p&gt;&lt;font style=&quot;font-size: 15px;&quot;&gt;Lorem ipsum dolor sit amet, consectetur adipisicing elit, sed do eiusmod tempor incididunt ut labore et dolore magna aliqua.&lt;/font&gt;&lt;/p&gt;" style="text;html=1;whiteSpace=wrap;overflow=hidden;rounded=0;textShadow=1;" vertex="1" parent="1">
          <mxGeometry x="40" y="1975" width="450" height="90" as="geometry" />
        </mxCell>
        <mxCell id="v-1SciKaPuptmnlQks71-52" value="social" style="ellipse;whiteSpace=wrap;html=1;aspect=fixed;fillColor=#f8cecc;strokeColor=#b85450;" vertex="1" parent="1">
          <mxGeometry x="710" y="1985" width="80" height="80" as="geometry" />
        </mxCell>
        <mxCell id="v-1SciKaPuptmnlQks71-53" value="social" style="ellipse;whiteSpace=wrap;html=1;aspect=fixed;fillColor=#f8cecc;strokeColor=#b85450;" vertex="1" parent="1">
          <mxGeometry x="618" y="1985" width="80" height="80" as="geometry" />
        </mxCell>
        <mxCell id="v-1SciKaPuptmnlQks71-54" value="social" style="ellipse;whiteSpace=wrap;html=1;aspect=fixed;fillColor=#f8cecc;strokeColor=#b85450;" vertex="1" parent="1">
          <mxGeometry x="530" y="1985" width="80" height="80" as="geometry" />
        </mxCell>
        <mxCell id="v-1SciKaPuptmnlQks71-55" value="&lt;font face=&quot;Garamond&quot; style=&quot;font-size: 15px;&quot;&gt;( info about platform/site to play games )&lt;/font&gt;" style="rounded=1;whiteSpace=wrap;html=1;fillColor=#f9f7ed;strokeColor=#36393d;" vertex="1" parent="1">
          <mxGeometry x="132" y="1740" width="307" height="80" as="geometry" />
        </mxCell>
        <mxCell id="v-1SciKaPuptmnlQks71-56" value="&lt;font face=&quot;Garamond&quot; style=&quot;font-size: 15px;&quot;&gt;( info about platform/site to play games )&lt;/font&gt;" style="rounded=1;whiteSpace=wrap;html=1;fillColor=#f9f7ed;strokeColor=#36393d;" vertex="1" parent="1">
          <mxGeometry x="132" y="1840" width="307" height="80" as="geometry" />
        </mxCell>
      </root>
    </mxGraphModel>
  </diagram>
</mxfile>
